<svg width="55" height="53" viewBox="0 0 55 53" fill="none" xmlns="http://www.w3.org/2000/svg">
<path fill-rule="evenodd" clip-rule="evenodd" d="M40.6409 23.6079H54.1943V28.3162C54.1943 29.4804 53.2442 30.4312 52.0811 30.4312H47.206L44.2979 31.9L40.6409 30.4312V23.6079Z" fill="#FFE07D"/>
<path fill-rule="evenodd" clip-rule="evenodd" d="M40.6408 30.4312H47.2059V33.4512C47.2059 34.1766 46.6121 34.7677 45.8904 34.7677H24.5154C24.5154 32.8691 24.5154 31.9031 25.9678 31.9031L28.8606 31.9001C30.6815 31.8971 31.8752 31.4307 32.5421 30.4312H40.6408Z" fill="#6F6571"/>
<path fill-rule="evenodd" clip-rule="evenodd" d="M27.0936 34.7678H45.8906C46.9928 36.6877 47.879 38.9946 47.1146 43.4073C45.8357 39.0555 32.8457 40.7925 31.5119 45.8148H17.179C16.6369 44.5867 16.1254 43.3738 15.6777 42.1487H19.7185C27.8913 39.0647 25.2634 40.4391 27.0936 34.7678Z" fill="#FFE07D"/>
<path fill-rule="evenodd" clip-rule="evenodd" d="M25.9334 22.9711C26.2136 24.4461 26.5942 25.8998 27.0205 27.1371L31.1524 28.7559L35.7597 27.1369C35.5984 18.4182 32.3402 14.237 29.5692 12.884C28.5704 12.1235 27.5473 11.8371 27.5473 11.8371C27.5473 11.8371 26.2014 13.9902 26.1314 13.9902C25.6137 15.2214 25.4189 16.8275 25.4524 18.5615L25.9334 22.9711Z" fill="#ECEAEC"/>
<path fill-rule="evenodd" clip-rule="evenodd" d="M35.7598 27.1369H27.0206C25.0079 27.3564 22.5322 28.8892 22.5322 33.6371V38.6137H27.0937V34.7678C27.0937 32.8692 27.0937 31.9031 28.5461 31.9031L31.4389 31.9001C33.2598 31.8971 34.4535 31.4308 35.1203 30.4312C35.6349 29.6603 35.8329 28.5723 35.7598 27.1369Z" fill="#4CAF50"/>
<path fill-rule="evenodd" clip-rule="evenodd" d="M35.7598 27.1368C35.5984 18.418 32.3402 14.2369 29.5692 12.8839C29.1581 13.1734 28.7014 13.4111 28.199 13.5878C30.6532 15.4437 33.1136 19.5913 33.2537 27.1368H35.7598Z" fill="#DAD8DB"/>
<path fill-rule="evenodd" clip-rule="evenodd" d="M35.7599 27.1369H33.2538C33.3269 28.5723 33.129 29.6603 32.6143 30.4312C32.1941 31.062 31.5607 31.5954 30.6929 31.9001H31.4389C33.2598 31.8971 34.4535 31.4308 35.1204 30.4312C35.6349 29.6603 35.8329 28.5723 35.7599 27.1369Z" fill="#3B893F"/>
<path fill-rule="evenodd" clip-rule="evenodd" d="M42.7541 16.7756H52.081C53.2441 16.7756 54.1942 17.7264 54.1942 18.8905V22.389H40.6409V18.8905C40.6409 17.7264 41.5909 16.7756 42.7541 16.7756Z" fill="#FFE07D"/>
<path fill-rule="evenodd" clip-rule="evenodd" d="M40.6409 21.3345H54.1943V24.6593H40.6409V21.3345Z" fill="#4CAF50"/>
<path fill-rule="evenodd" clip-rule="evenodd" d="M51.3654 21.3346H53.101H54.1943V18.8905C54.1943 18.0951 53.7496 17.4003 53.1011 17.0407C52.7966 16.8731 52.4495 16.7756 52.0811 16.7756H49.2522C50.4154 16.7756 51.3654 17.7264 51.3654 18.8905V21.3346Z" fill="#FFC269"/>
<path fill-rule="evenodd" clip-rule="evenodd" d="M51.3655 24.6593H53.1012H54.1943V23.608V22.389V21.3345H53.1012H51.3655V22.389V23.608V24.6593Z" fill="#3B893F"/>
<path fill-rule="evenodd" clip-rule="evenodd" d="M51.3654 24.6594V28.3163C51.3654 29.4804 50.4154 30.4312 49.2522 30.4312H52.0811C52.4495 30.4312 52.7966 30.3368 53.1011 30.1691C53.7497 29.8065 54.1943 29.1117 54.1943 28.3163V24.6594H53.1011H51.3654Z" fill="#FFC269"/>
<path fill-rule="evenodd" clip-rule="evenodd" d="M31.512 45.8148C31.512 41.3076 35.0837 37.7177 39.49 37.7177C43.074 37.7177 46.1068 40.0947 47.1148 43.4073C47.3219 44.0869 47.4436 44.8092 47.465 45.5589C47.4741 45.8514 47.2731 45.8148 46.9991 45.8148C41.8377 45.8148 36.6734 45.8117 31.512 45.8148Z" fill="#4CAF50"/>
<path fill-rule="evenodd" clip-rule="evenodd" d="M33.5186 45.8148H45.6622C45.4886 49.0878 42.8363 51.6904 39.5904 51.6904C36.3443 51.6903 33.692 49.0878 33.5186 45.8148Z" fill="#6F6571"/>
<path fill-rule="evenodd" clip-rule="evenodd" d="M2.68166 44.5197L13.1292 46.9241C12.4653 49.8101 9.58781 51.6141 6.70418 50.9498C3.81743 50.2854 2.0179 47.4055 2.68166 44.5197Z" fill="#6F6571"/>
<path fill-rule="evenodd" clip-rule="evenodd" d="M1.89893 41.591C3.37576 39.4426 5.93971 38.1962 8.61935 38.4643C13.3453 39.4639 14.883 42.2888 15.1906 45.8117C15.1844 46.2902 15.1327 46.7717 15.0292 47.2532C14.9988 47.3873 14.9104 47.3325 14.7643 47.299L13.1291 46.9242L2.6816 44.5198L1.89903 44.3399L0.805908 44.087C1.01592 43.1666 1.39351 42.3255 1.89893 41.591Z" fill="#ECEAEC"/>
<path fill-rule="evenodd" clip-rule="evenodd" d="M8.61035 38.4523L12.8307 23.8488L14.7308 22.9985L16.8563 23.8488C14.0639 31.5894 14.8435 36.9925 16.7283 42.1489C17.179 43.3739 17.6905 44.5868 18.2295 45.8149H15.1937L8.61035 38.4523Z" fill="#4CAF50"/>
<path fill-rule="evenodd" clip-rule="evenodd" d="M21.6795 7.47465L26.6307 6.4202C27.1331 6.46596 28.5704 7.67274 28.5704 8.42845L27.5168 13.7859C27.0783 13.917 26.6124 13.9901 26.1313 13.9901C23.4943 13.9901 21.3567 11.8478 21.3567 9.20865C21.3567 8.59603 21.4694 8.0109 21.6795 7.47465Z" fill="#FFECE4"/>
<path fill-rule="evenodd" clip-rule="evenodd" d="M20.0811 7.47477C20.0811 4.06767 22.779 1.30972 26.1102 1.30972C29.4415 1.30972 32.1394 4.06767 32.1394 7.47477C32.1394 9.72375 31.2259 11.723 29.5694 12.884C28.9787 13.3015 28.2904 13.6093 27.5171 13.786V8.42857C27.5171 7.67275 27.1334 7.52042 26.631 7.47466H21.6798H20.0811V7.47477Z" fill="#4CAF50"/>
<path fill-rule="evenodd" clip-rule="evenodd" d="M22.9553 2.22087C23.8718 1.64187 24.9528 1.30972 26.11 1.30972C29.4412 1.30972 32.1391 4.06767 32.1391 7.47477C32.1391 9.72375 31.2256 11.723 29.5692 12.884C29.1489 13.1796 28.6831 13.4204 28.1715 13.5971C29.3956 12.3568 30.0595 10.577 30.0595 8.61441C30.0595 5.05499 27.2367 2.16899 23.7563 2.16899C23.4851 2.1691 23.2172 2.18435 22.9553 2.22087Z" fill="#3B893F"/>
<path fill-rule="evenodd" clip-rule="evenodd" d="M22.5322 38.6136H27.0937V41.4874C27.0937 42.103 26.7587 42.1487 26.2655 42.1487H19.7186C19.5877 39.2658 21.3324 38.6136 22.5322 38.6136Z" fill="#6F6571"/>
<path fill-rule="evenodd" clip-rule="evenodd" d="M16.7282 42.1488C14.8434 36.9924 14.0638 31.5893 16.8562 23.8487H15.291C15.2849 23.8487 15.2789 23.8487 15.2728 23.8487H14.7094C11.9171 31.5893 12.6937 36.9924 14.5815 42.1488C15.0291 43.3738 15.5407 44.5867 16.0827 45.8149H17.179H18.2295C17.6905 44.5867 17.179 43.3738 16.7282 42.1488Z" fill="#3B893F"/>
<path fill-rule="evenodd" clip-rule="evenodd" d="M15.1905 45.8117L8.61928 38.4643C7.94026 38.3973 7.26727 38.4247 6.61865 38.5436L12.9341 45.6045C12.928 46.016 12.8884 46.4334 12.8093 46.8509L13.129 46.9241L14.7641 47.2989C14.9103 47.3324 14.9986 47.3873 15.029 47.2531C15.1327 46.7717 15.1845 46.2902 15.1905 45.8117Z" fill="#DAD8DB"/>
<path fill-rule="evenodd" clip-rule="evenodd" d="M45.8904 34.7678H27.0935V36.4225H42.5379C43.7955 36.4225 44.3923 36.965 44.8826 38.0651C45.3058 39.019 45.3149 39.3298 45.5068 40.4818C46.2285 41.3198 46.7826 42.3133 47.1146 43.4073C47.8788 38.9946 46.9928 36.6877 45.8904 34.7678Z" fill="#FFC269"/>
<path fill-rule="evenodd" clip-rule="evenodd" d="M45.5069 40.4818C44.0453 38.7843 41.8925 37.7177 39.4899 37.7177C38.8869 37.7177 38.3023 37.7847 37.739 37.9097C41.3352 38.7234 43.8504 41.8988 43.96 45.5589C43.9662 45.7599 43.8747 45.8057 43.7286 45.8148H45.6622H46.999C47.273 45.8148 47.474 45.8514 47.4649 45.5589C47.4436 44.8092 47.3218 44.087 47.1147 43.4073C47.1086 43.3859 47.1026 43.3677 47.0964 43.3494C47.0964 43.3494 47.0964 43.3494 47.0964 43.3464C46.7614 42.2767 46.2163 41.3045 45.5069 40.4818Z" fill="#3B893F"/>
<path fill-rule="evenodd" clip-rule="evenodd" d="M12.8094 46.8509L2.68168 44.5197C2.569 44.9981 2.52946 45.4796 2.54773 45.9489L10.5866 47.7987L10.9033 47.8719C10.6049 49.1823 9.84672 50.2702 8.83878 51.0046C10.8942 50.642 12.6329 49.0878 13.1292 46.9241L12.8094 46.8509Z" fill="#5D5360"/>
<path fill-rule="evenodd" clip-rule="evenodd" d="M43.7286 45.8148H33.5186C33.5521 46.4548 33.683 47.0704 33.8931 47.6464H41.0063H42.9399C42.8637 49.0787 42.3157 50.38 41.4509 51.3948C43.7986 50.6238 45.5252 48.4326 45.6622 45.8148H43.7286Z" fill="#5D5360"/>
<path fill-rule="evenodd" clip-rule="evenodd" d="M47.2061 33.4512V30.4312H43.0801V33.4512C43.0801 34.1766 42.4863 34.7677 41.7646 34.7677H45.8906C46.6123 34.7677 47.2061 34.1766 47.2061 33.4512Z" fill="#5D5360"/>
<path fill-rule="evenodd" clip-rule="evenodd" d="M21.3811 8.69678H25.4493C25.9517 8.74254 26.3354 8.89787 26.3354 9.65369V13.9842C26.7434 13.9659 27.1392 13.8989 27.5168 13.7861V8.42855C27.5168 7.67273 27.1331 7.5204 26.6307 7.47464H21.6795C21.5303 7.85867 21.4268 8.2701 21.3811 8.69678Z" fill="#FFDDCE"/>
<path fill-rule="evenodd" clip-rule="evenodd" d="M11.9506 19.25L17.6478 21.1334C17.928 21.3832 17.6113 23.931 17.4224 23.8487H12.8306H10.7996V19.6554C10.7996 18.8295 11.2289 19.0123 11.9506 19.25Z" fill="#FFE07D"/>
<path fill-rule="evenodd" clip-rule="evenodd" d="M20.3032 23.8487H19.8252H17.4227C15.8758 23.8487 15.8302 21.2827 17.6481 21.1334L20.3033 20.9201L21.0159 22.4286L20.3032 23.8487Z" fill="#FFECE4"/>
<path fill-rule="evenodd" clip-rule="evenodd" d="M25.4523 18.5612L26.4053 17.7415C28.7926 15.6845 31.8102 19.1555 28.6191 21.2278L25.9333 22.9709L24.5813 23.8485H20.303V20.9199L22.9612 20.7036L25.4523 18.5612Z" fill="#4CAF50"/>
<path fill-rule="evenodd" clip-rule="evenodd" d="M20.3032 23.8486V22.4285H19.7337H19.4262H18.945H16.5426C16.4512 22.4285 16.366 22.4224 16.2838 22.4041C16.1955 23.1112 16.5943 23.8486 17.4227 23.8486H19.8252H20.3032Z" fill="#FFDDCE"/>
<path fill-rule="evenodd" clip-rule="evenodd" d="M28.6192 21.2278C30.5498 19.9723 30.2087 18.2077 29.1094 17.4642C29.1977 18.226 28.8354 19.1006 27.7392 19.8107L25.6472 21.1668L25.0565 21.5538L23.7045 22.4285H20.3032V23.8486H24.5815L25.9335 22.9709L28.6192 21.2278Z" fill="#3B893F"/>
<path fill-rule="evenodd" clip-rule="evenodd" d="M17.648 21.1334L15.355 20.3776C14.5877 21.2004 14.2162 22.8034 14.7096 23.8486H16.8563H17.4226C16.5944 23.8486 16.1954 23.1112 16.2837 22.4041C16.363 21.7917 16.8045 21.2035 17.648 21.1334Z" fill="#FFC269"/>
<path d="M52.081 15.9699H42.7541C41.1446 15.9699 39.8351 17.28 39.8351 18.8904V29.6255H36.3465C36.5404 28.9208 36.6123 28.0894 36.5651 27.122V27.1219C36.4894 23.0335 35.7475 19.5878 34.36 16.8806C33.2825 14.7787 32.0251 13.5185 30.9462 12.7651C32.2126 11.4631 32.9448 9.61081 32.9448 7.47451C32.9448 3.63085 29.8786 0.503906 26.11 0.503906C22.3413 0.503906 19.2751 3.63085 19.2751 7.47451C19.2751 7.91956 19.6359 8.28018 20.0808 8.28018H20.6282C20.5778 8.58418 20.551 8.89398 20.551 9.20862C20.551 11.9174 22.4865 14.1813 25.0455 14.6886C24.7773 15.6847 24.644 16.8591 24.6445 18.1933L22.6351 19.9216L17.7458 20.317L12.1058 18.4526C11.5889 18.2807 11.003 18.0865 10.4947 18.453C9.99378 18.8145 9.99378 19.4473 9.99378 19.6552V23.8484C9.99378 24.2934 10.3545 24.6541 10.7994 24.6541H11.7586L10.2875 29.7377C10.1638 30.165 10.41 30.6119 10.8375 30.7355C11.2651 30.8598 11.7117 30.613 11.8354 30.1856L13.4362 24.6541H15.7267C12.8778 33.3415 14.5034 39.1403 17.0019 45.0089H15.5536L9.52155 38.2643L10.7971 33.8579C10.9208 33.4304 10.6746 32.9837 10.2472 32.86C9.81976 32.7364 9.37299 32.9826 9.24924 33.4099L8.02925 37.6248C4.25595 37.5619 0.880753 40.1634 0.0206262 43.9063C-0.0789539 44.3399 0.191642 44.7721 0.625089 44.8718L1.76881 45.135C1.47662 48.1699 3.47521 51.0332 6.52319 51.7348C6.98607 51.8415 7.45293 51.8941 7.91656 51.8941C9.05996 51.8941 10.1833 51.5736 11.1768 50.9508C12.3429 50.2201 13.2117 49.1459 13.6819 47.8764L14.5843 48.0841C14.8532 48.1463 15.1082 48.1777 15.363 48.0406C15.6001 47.9129 15.7577 47.6825 15.8168 47.4225C15.8735 47.1587 15.9167 46.8907 15.9467 46.6202H32.7966C33.3355 49.9704 36.1859 52.4958 39.5902 52.4958C42.9945 52.4958 45.8451 49.9704 46.3839 46.6202H46.9988L47.0699 46.621C47.0945 46.6213 47.1208 46.6216 47.1485 46.6216C47.379 46.6216 47.7117 46.5961 47.985 46.318C48.1218 46.1789 48.2823 45.93 48.2699 45.5346C48.2472 44.778 48.1337 44.047 47.9399 43.3522C48.5816 39.4563 47.9642 37.0834 47.0488 35.2264C47.6275 34.8471 48.0112 34.1936 48.0112 33.4511V31.2368H52.0807C53.6902 31.2368 54.9997 29.9266 54.9997 28.3162V18.8903C55 17.28 53.6906 15.9699 52.081 15.9699ZM10.3212 49.5857C9.28984 50.2321 8.06953 50.4376 6.88488 50.1648H6.88478C4.70433 49.6629 3.24962 47.6635 3.35565 45.5015L12.0947 47.5129C11.7332 48.3642 11.1214 49.0843 10.3212 49.5857ZM14.3525 46.3774L1.82016 43.4936C2.78728 40.8452 5.38989 39.0921 8.23475 39.2429L14.374 46.1073C14.3686 46.1978 14.3616 46.2879 14.3525 46.3774ZM26.5218 32.3379C26.288 32.9548 26.288 33.7152 26.288 34.7678V37.8081H23.3378V33.6371C23.3378 28.9215 25.9114 28.0811 27.0664 27.9425H34.9651C34.9333 29.0127 34.6918 29.7735 34.2333 30.2563C33.699 30.819 32.7847 31.0931 31.4381 31.0944L28.5462 31.0974C27.5149 31.0975 26.8339 31.5148 26.5218 32.3379ZM26.288 39.4193V41.343C26.2807 41.343 26.2731 41.343 26.2654 41.343H20.5427C20.6071 40.7464 20.7929 40.2847 21.0981 39.9652C21.5521 39.4902 22.1914 39.4193 22.5322 39.4193H26.288ZM34.9295 26.3312H27.6026C27.3084 25.4054 27.046 24.3915 26.8303 23.3495L29.0579 21.9036C30.274 21.114 30.9066 19.9982 30.7936 18.8422C30.6934 17.8175 29.9968 16.9022 29.0188 16.5104C28.1257 16.1527 27.1644 16.2651 26.3148 16.8083C26.3849 16.0376 26.5153 15.3497 26.7039 14.7658C27.0473 14.7303 27.3884 14.6632 27.7233 14.5647C28.4051 14.4063 29.0352 14.154 29.604 13.8194C31.1557 14.7464 34.5685 17.7534 34.9295 26.3312ZM20.9454 6.66895C21.3254 4.0947 23.4966 2.11534 26.11 2.11534C28.9902 2.11534 31.3335 4.51955 31.3335 7.47462C31.3335 9.87808 30.1809 11.8152 28.3225 12.6677V8.42853C28.3225 7.69451 28.0416 6.7941 26.7038 6.67228C26.6795 6.67003 26.6551 6.66895 26.6307 6.66895H20.9454ZM22.1624 9.20873C22.1624 8.89076 22.1986 8.5802 22.2698 8.28028H26.5912C26.6409 8.28565 26.6773 8.29145 26.7033 8.29672C26.7074 8.32658 26.7111 8.36955 26.7111 8.42853V13.1418C26.5191 13.17 26.326 13.1843 26.1329 13.1844C26.1311 13.1844 26.1293 13.1844 26.1276 13.1844C23.9409 13.1824 22.1624 11.3997 22.1624 9.20873ZM21.118 21.6611L23.0262 21.5067C23.1962 21.4931 23.3575 21.4257 23.4869 21.3145L26.9309 18.3524L26.9314 18.3518C27.2644 18.0649 27.6199 17.9177 27.966 17.9177C28.12 17.9177 28.2723 17.947 28.4197 18.006C28.8455 18.1765 29.1477 18.5662 29.1901 18.9987C29.2432 19.543 28.8847 20.0948 28.1807 20.5519L24.3431 23.0428H21.1182V21.6611H21.118ZM17.7131 21.9365L19.5066 21.7915V23.0431H17.4225C17.1524 23.0431 17.0865 22.8185 17.0788 22.6302C17.0744 22.5235 17.0845 21.9881 17.7131 21.9365ZM15.8063 21.3803C15.5636 21.7782 15.4503 22.2436 15.4689 22.6962C15.4737 22.8134 15.4886 22.9263 15.5095 23.0363C15.5095 23.0385 15.5082 23.0408 15.5086 23.0429H11.6053V19.9843L15.8094 21.374C15.8081 21.3762 15.8075 21.3782 15.8063 21.3803ZM17.4271 24.6543H24.5815C24.7371 24.6543 24.8895 24.6092 25.0201 24.5244L25.3848 24.2876C25.5602 25.063 25.76 25.8175 25.9776 26.5302C24.3345 27.0152 21.7264 28.5826 21.7264 33.637V37.8889C21.1611 38.0029 20.4924 38.2666 19.9331 38.8519C19.3435 39.4689 19.0067 40.305 18.9259 41.3429H17.3006C15.6629 36.623 15.04 31.6004 17.4271 24.6543ZM18.755 45.0062C18.4572 44.3214 18.1702 43.6392 17.8999 42.9543H26.2653C27.3495 42.9543 27.8992 42.4607 27.8992 41.4874V38.6136V35.5734H34.2584C34.7035 35.5734 35.0641 35.2128 35.0641 34.7677C35.0641 34.3227 34.7035 33.9621 34.2584 33.9621H27.905C27.9153 33.5044 27.9446 33.1302 28.0285 32.9091C28.0692 32.8016 28.1045 32.7088 28.5469 32.7088L31.4396 32.7058C33.2513 32.704 34.5473 32.2658 35.4018 31.3658C35.4414 31.3241 35.4788 31.2804 35.5162 31.2369H40.6409H46.4003V33.4512C46.4003 33.7281 46.1669 33.9621 45.8906 33.9621H37.87C37.4249 33.9621 37.0643 34.3227 37.0643 34.7677C37.0643 35.2128 37.4249 35.5734 37.87 35.5734H45.4172C46.054 36.7553 46.6268 38.2261 46.5927 40.5497C44.9988 38.3356 42.4184 36.912 39.4899 36.912C37.138 36.912 34.9311 37.8345 33.2756 39.5098C31.8066 40.9962 30.9244 42.9253 30.7428 45.0089L18.755 45.0062ZM39.5903 50.8847C37.0717 50.8847 34.9476 49.07 34.4336 46.6204H44.747C44.233 49.0698 42.1088 50.8847 39.5903 50.8847ZM45.6622 45.0091H33.5186H32.3612C32.7567 41.3661 35.8027 38.5233 39.4899 38.5233C42.727 38.5233 45.4456 40.6579 46.3459 43.646C46.3488 43.6555 46.3517 43.6649 46.3549 43.6743C46.4822 44.103 46.5721 44.5492 46.6208 45.0091H45.6622ZM53.3887 28.3163C53.3887 29.0383 52.802 29.6255 52.081 29.6255H41.4465V25.465H53.3887V28.3163ZM53.3887 23.8537H41.4465V22.1402H53.3887V23.8537ZM53.3887 20.5288H41.4465V18.8904C41.4465 18.1685 42.0331 17.5812 42.7541 17.5812H52.081C52.802 17.5812 53.3887 18.1686 53.3887 18.8904V20.5288Z" fill="black"/>
</svg>
