<svg width="25" height="25" viewBox="0 0 25 25" fill="none" xmlns="http://www.w3.org/2000/svg">
<path d="M10.0707 13.01H6.34115V0.881654H8.64547C8.93922 2.22853 10.5557 3.26189 12.5 3.26189C14.4443 3.26189 16.0608 2.22853 16.3546 0.881654H18.6587V7.63225C18.6587 7.8757 18.9317 8.07307 19.2685 8.07307C19.6053 8.07307 19.8783 7.8757 19.8783 7.63225V6.44395L21.1906 6.91828C21.2777 6.94979 21.3709 6.96483 21.463 6.96483C21.6558 6.96483 21.8439 6.89865 21.9615 6.77816L24.8884 3.78071C25.0717 3.59298 25.0247 3.33495 24.7806 3.18783L19.6611 0.103741C19.555 0.0390867 19.4181 0 19.2685 0H5.73137C5.58153 0 5.44453 0.0392042 5.33835 0.104035L0.219447 3.18783C-0.0247093 3.33495 -0.071703 3.59298 0.111638 3.78071L3.0385 6.77816C3.15615 6.89859 3.34421 6.96483 3.53706 6.96483C3.62909 6.96483 3.72227 6.94973 3.80943 6.91828L5.12167 6.44395V13.4509C5.12167 13.6943 5.39469 13.8917 5.73146 13.8917H10.0708C10.4076 13.8917 10.6806 13.6943 10.6806 13.4509C10.6806 13.2074 10.4075 13.01 10.0707 13.01ZM21.2673 5.96028L19.8783 5.4582V1.38226L23.5674 3.60467L21.2673 5.96028ZM12.5 2.38023C11.2305 2.38023 10.1648 1.73927 9.8878 0.881654H15.1122C14.8352 1.73933 13.7696 2.38023 12.5 2.38023ZM3.73259 5.96028L1.4325 3.60467L5.12159 1.38226V5.4582L3.73259 5.96028Z" fill="#505050"/>
<path d="M24.291 8.58513H12.0307C11.6939 8.58513 11.4209 8.7825 11.4209 9.02596V24.5592C11.4209 24.8026 11.6939 25 12.0307 25H16.7261C17.0497 25 17.317 24.8173 17.3349 24.5836L18.1608 13.8423L18.9866 24.5836C19.0046 24.8172 19.2719 25 19.5955 25H24.2908C24.6276 25 24.9006 24.8026 24.9006 24.5592V9.02596C24.9008 8.78244 24.6278 8.58513 24.291 8.58513ZM23.6812 10.4534H21.7584V9.46678H23.6812V10.4534ZM15.7829 10.4534V9.46678H20.5388V10.4534H15.7829ZM14.5633 9.46678V10.4534H12.6405V9.46678H14.5633ZM20.1725 24.1183L19.3436 13.3388C19.3256 13.1052 19.0584 12.9225 18.7348 12.9225H17.587C17.2634 12.9225 16.9961 13.1052 16.9782 13.3388L16.1494 24.1183H12.6405V11.335H23.6813V24.1183H20.1725Z" fill="#505050"/>
</svg>
